<svg width="215" height="45" viewBox="0 0 215 45" fill="none" xmlns="http://www.w3.org/2000/svg">
<g id="&#208;&#160;&#208;&#181;&#209;&#129;&#209;&#131;&#209;&#128;&#209;&#129; 1 1" clip-path="url(#clip0_5_29)">
<g id="&#208;&#161;&#208;&#187;&#208;&#190;&#208;&#185; 2">
<g id="&#195;&#145;&#195;&#171;&#195;&#174;&#195;&#169; 1">
<path id="Vector" d="M102.079 26.6057L98.3772 20.1742H95.2085V33.6478H97.6612V23.584L101.795 30.952H102.363L106.497 23.584V33.6478H108.955V20.1742H105.781L102.079 26.6057Z" fill="#0067A2"/>
<path id="Vector_2" d="M115.851 27.8372H120.416V25.5657H115.851V22.4457H120.853V20.1742H113.393V33.6478H121.061V31.3763H115.851V27.8372Z" fill="#0067A2"/>
<path id="Vector_3" d="M135.3 20.1794H127.124C126.936 25.9745 126.652 28.9755 124.585 31.4022H123.113L123.564 37.0576H125.494V33.6323H134.691V37.0369H136.635L137.108 31.397H135.31L135.3 20.1794ZM132.847 31.4022H127.261C128.714 29.5705 129.186 26.6833 129.353 22.4509H132.832L132.847 31.4022Z" fill="#0067A2"/>
<path id="Vector_4" d="M142.952 28.5874V20.1742H140.495V33.6478H141.815L149.275 25.2553V33.6478H151.732V20.1742H150.407L142.952 28.5874Z" fill="#0067A2"/>
<path id="Vector_5" d="M167.256 20.1742H164.803V31.3919H158.628V20.1742H156.171V33.6478H166.672V37.0524H168.597L169.049 31.3919H167.256V20.1742Z" fill="#0067A2"/>
<path id="Vector_6" d="M175 28.5874V20.1742H172.547V33.6478H173.868L181.327 25.2553V33.6478H183.78V20.1742H182.46L175 28.5874Z" fill="#0067A2"/>
<path id="Vector_7" d="M196.851 25.545H190.676V20.1742H188.223V33.6478H190.676V27.8165H196.851V33.6478H199.309V20.1742H196.851V25.545Z" fill="#0067A2"/>
<path id="Vector_8" d="M208.937 19.7913H208.394L202.33 33.6323H204.9L205.992 31.0452H211.339L212.431 33.6323H215L208.937 19.7913ZM206.86 28.9755L208.653 24.743L210.45 28.9755H206.86Z" fill="#0067A2"/>
<path id="Vector_9" d="M4.31635 20.1794H0V33.6323H2.44763V28.6858H4.33159C6.67257 28.6858 8.90184 27.356 8.90184 24.4222C8.87645 21.6178 6.65226 20.1794 4.31635 20.1794ZM3.80855 26.673H2.44763V22.2491H3.82378C5.46399 22.2491 6.31203 22.9993 6.31203 24.4222C6.31203 25.8451 5.46399 26.6678 3.82378 26.6678L3.80855 26.673Z" fill="#E3051C"/>
<path id="Vector_10" d="M23.6536 26.6471L28.5133 20.1794H25.5172L21.5411 25.5605H20.9368V20.1794H18.4892V25.5605H17.8849L13.9088 20.1794H10.9127L15.7724 26.6471C13.8529 28.1994 12.7256 30.1035 10.7249 33.6168H13.7717C15.1682 30.9469 16.0162 29.4308 17.9002 27.8165H18.5044V33.6323H20.9521V27.8165H21.5564C23.4403 29.4308 24.2884 30.9469 25.6848 33.6168H28.7317C26.7055 30.1035 25.5731 28.2253 23.6536 26.6471Z" fill="#E3051C"/>
<path id="Vector_11" d="M42.2342 20.1794H34.0738C33.8859 25.9641 33.6015 28.9393 31.5703 31.3763H30.0977L30.5496 37.0214H32.4996V33.6323H41.6401V37.0317H43.5799L44.0166 31.3867H42.2342V20.1794ZM39.7866 31.3712H34.2261C35.6784 29.5499 36.1456 26.6678 36.3183 22.4405H39.7866V31.3712Z" fill="#E3051C"/>
<path id="Vector_12" d="M73.1902 27.8372C73.0113 27.8369 72.837 27.7786 72.6928 27.6707C72.5486 27.5628 72.4418 27.4109 72.3879 27.237L71.1183 22.989L68.8231 30.7865C68.7752 30.9616 68.6743 31.1169 68.5348 31.2303C68.3954 31.3436 68.2243 31.4092 68.0461 31.4178H67.9953C67.8299 31.4205 67.6675 31.3727 67.529 31.2805C67.3905 31.1882 67.2823 31.0558 67.2184 30.9004L65.1872 25.7262L64.0852 27.1698C64.0129 27.2831 63.9182 27.3798 63.8072 27.4537C63.6961 27.5277 63.5712 27.5772 63.4403 27.5992L51.0042 27.6354C51.0788 29.6917 51.4979 31.7199 52.2432 33.6323H62.1251V43.6961C66.3602 45.4375 71.093 45.4375 75.3281 43.6961V33.6323C75.3281 33.6323 79.3143 33.3736 82.0717 31.9973C86.7029 29.6844 87.9724 25.7055 87.9724 24.1843C82.7217 28.5358 73.1902 27.8372 73.1902 27.8372Z" fill="#E3051C"/>
<path id="Vector_13" d="M89.0184 8.34083C88.6752 7.76961 88.2844 7.22951 87.8505 6.72648C80.8834 -1.31422 65.1515 0.0931586 65.1515 0.0931586C65.1515 0.0931586 79.6037 -1.03482 87.3122 6.89205C88.1069 7.76333 88.7478 8.76815 89.2063 9.86204C89.3434 11.8645 89.125 15.3467 86.5555 17.6803C84.2196 15.8279 79.5224 14.2032 75.3178 13.6496V10.1104C71.0827 8.36908 66.3499 8.36908 62.1148 10.1104V20.1794H52.2431C51.4837 22.1204 51.0611 24.181 50.9939 26.2694H62.968L64.5777 23.2684C64.73 22.9735 64.8773 22.8131 65.2023 22.8338C65.5273 22.8545 65.7101 23.1701 65.8421 23.4754L67.6195 27.1283L70.0772 19.5895C70.1253 19.4102 70.2288 19.2514 70.3724 19.1367C70.516 19.0221 70.6921 18.9577 70.8745 18.9531C71.0541 18.9538 71.2288 19.0129 71.3731 19.1218C71.5174 19.2307 71.6238 19.3837 71.6768 19.5585L73.7487 26.285C77.0704 26.5594 80.413 26.1907 83.6001 25.1984C88.0536 23.8841 89.9985 20.6865 90.75 17.4371C91.1284 15.8731 91.1686 14.244 90.8678 12.6627C90.5671 11.0813 89.9326 9.58549 89.0083 8.27874L89.0184 8.34083ZM75.3178 20.1794V14.2135C79.949 14.7568 84.1282 16.3091 86.0833 18.0735C85.7125 18.3647 85.3165 18.6211 84.9001 18.8393C81.8583 20.4019 75.3178 20.1794 75.3178 20.1794Z" fill="#0067A2"/>
</g>
</g>
</g>
<defs>
<clipPath id="clip0_5_29">
<rect width="215" height="45" fill="white"/>
</clipPath>
</defs>
</svg>
